<svg xmlns="http://www.w3.org/2000/svg" version="1.1" xmlns:xlink="http://www.w3.org/1999/xlink" xmlns:svgjs="http://svgjs.dev/svgjs" viewBox="0 0 800 800"><g transform="matrix(1,0,0,1,0,0)"><path d="M712.6521121790761 630.1371088435734C714.1049851626638 629.2984433139393 715.8950148373362 629.2984433139393 717.3478878209239 630.1373436323555L743.1521141280064 645.0353962224642C744.6049871115941 645.8740617520982 745.5000019489303 647.4243720802542 745.5000019489303 649.1019379283043V678.8980431085217C745.5000019489303 680.5756089565718 744.6049871115941 682.125919284728 743.1521141280064 682.9648196031441L717.3478878209239 697.8628721932528C715.8950148373362 698.7015377228868 714.1049851626638 698.7015377228868 712.6521121790761 697.8626374044707L686.8478858719936 682.964584814362C685.395012888406 682.125919284728 684.4999980510697 680.5756089565718 684.4999980510697 678.8980431085217V649.1019379283043C684.4999980510697 647.4243720802542 685.395012888406 645.8740617520982 686.8478858719936 645.0351614336821L712.6521121790761 630.1371088435734Z " stroke-width="9.5" stroke="#6a5bcd" fill="none" opacity="0.04" transform="matrix(2.7755575615628914e-17,0.9757072376441372,-1.015426611885745,-0.22525976502302186,759.5548475318286,116.31313235450432)"></path><path d="M683.1794707530814 594.075676357921C685.1498350080216 592.9382909153472 687.577446042227 592.9382909153472 689.5478102971672 594.0759947748982L724.5431097598274 614.2805072294419C726.5134740147676 615.4178926720157 727.7272795318704 617.5203999724956 727.7272795318704 619.7954892746202V660.2045141837078C727.7272795318704 662.4796034858325 726.5134740147676 664.5821107863123 724.5431097598274 665.7198146458634L689.5478102971672 685.924327100407C687.577446042227 687.0617125429808 685.1498350080216 687.0617125429808 683.1794707530814 685.9240086834299L648.1841712904211 665.7194962288861C646.2138070354811 664.5821107863123 645.0000015183782 662.4796034858325 645.0000015183782 660.2045141837078V619.7954892746202C645.0000015183782 617.5203999724956 646.2138070354811 615.4178926720157 648.1841712904211 614.2801888124648L683.1794707530814 594.075676357921Z " stroke-width="10.090909090909092" stroke="#6a62d2" fill="none" opacity="0.12727272727272726" transform="matrix(0.14412521109438015,0.9991183386656292,-1.0024128614255126,-0.06349583890533428,698.108699818563,37.39860060992055)"></path><path d="M653.7068140682977 558.014236242874C656.1946695945902 556.5781308873605 659.2598619883288 556.5781308873605 661.7477175146214 558.0146382880463L705.9340901328594 583.5256106070252C708.421945659152 584.9617159625386 709.9545418560213 587.6164202353424 709.9545418560213 590.4890329915415V641.5109776294994C709.9545418560213 644.3835903856985 708.421945659152 647.0382946585023 705.9340901328594 648.474802059188L661.7477175146214 673.985774378167C659.2598619883288 675.4218797336803 656.1946695945902 675.4218797336803 653.7068140682977 673.9853723329946L609.5204414500597 648.4744000140157C607.0325859237671 647.0382946585023 605.4999897268979 644.3835903856985 605.4999897268979 641.5109776294994V590.4890329915415C605.4999897268979 587.6164202353424 607.0325859237671 584.9617159625386 609.5204414500597 583.5252085618529L653.7068140682977 558.014236242874Z " stroke-width="10.681818181818182" stroke="#6a69d7" fill="none" opacity="0.21454545454545454" transform="matrix(0.28462967654657045,0.9959219277388809,-0.9693596572238292,0.0998850271492121,632.7938328326554,-30.730204284143497)"></path><path d="M624.2341726423031 521.9528037572215C627.239519439948 520.2179784887685 630.9422931932197 520.2179784887685 633.9476399908647 521.9532894305889L687.3250857646806 552.770721614003C690.3304325623254 554.5055468824562 692.1818194389614 557.7124481275837 692.1818194389614 561.1825843378574V622.8174487046855C692.1818194389614 626.2875849149591 690.3304325623254 629.4944861600868 687.3250857646806 631.2297971019073L633.9476399908647 662.0472292853214C630.9422931932197 663.7820545537744 627.239519439948 663.7820545537744 624.2341726423031 662.0467436119538L570.8567268684872 631.2293114285399C567.8513800708422 629.4944861600868 565.9999931942064 626.2875849149591 565.9999931942064 622.8174487046855V561.1825843378574C565.9999931942064 557.7124481275837 567.8513800708422 554.5055468824562 570.8567268684872 552.7702359406356L624.2341726423031 521.9528037572215Z " stroke-width="11.272727272727273" stroke="#6a6fdc" fill="none" opacity="0.30181818181818176" transform="matrix(0.41878421035772195,0.9662144112742183,-0.9170095084862305,0.26054019658689287,564.096817433207,-86.30836412766132)"></path><path d="M594.7615312163084 485.891340753991C598.2843692853057 483.8577955725982 602.6247243981105 483.8577955725982 606.147562467108 485.8919100555536L668.7160813965015 522.0158021034027C672.238919465499 524.0493472847955 674.4090970219013 527.808445502247 674.4090970219013 531.8761051665952V604.1238892622935C674.4090970219013 608.1915489266416 672.238919465499 611.9506471440931 668.7160813965015 613.9847616270484L606.147562467108 650.1086536748976C602.6247243981105 652.1421988562904 598.2843692853057 652.1421988562904 594.7615312163084 650.108084373335L532.1930122869147 613.9841923254859C528.6701742179173 611.9506471440931 526.499996661515 608.1915489266416 526.499996661515 604.1238892622935V531.8761051665952C526.499996661515 527.808445502247 528.6701742179173 524.0493472847955 532.1930122869147 522.0152328018402L594.7615312163084 485.891340753991Z " stroke-width="11.863636363636363" stroke="#6a74e0" fill="none" opacity="0.38909090909090904" transform="matrix(0.5439926474858985,0.9107955173453437,-0.8464690821633805,0.4142011166450933,492.63979706207607,-127.94832761164207)"></path><path d="M565.2888745315245 449.8299006389441C569.3292038718744 447.49763554461157 574.3071403442123 447.49763554461157 578.3474696845619 449.8305535687017L650.1070617695334 491.260905480986C654.1473911098832 493.5931705753185 656.6363593460521 497.9044657650938 656.6363593460521 502.5696488835165V585.430352708085C656.6363593460521 590.0955358265077 654.1473911098832 594.406831016283 650.1070617695334 596.7397490403731L578.3474696845619 638.1701009526574C574.3071403442123 640.5023660469899 569.3292038718744 640.5023660469899 565.2888745315245 638.1694480228998L493.5292824465531 596.7390961106155C489.4889531062033 594.406831016283 486.9999848700344 590.0955358265077 486.9999848700344 585.430352708085V502.5696488835165C486.9999848700344 497.9044657650938 489.4889531062033 493.5931705753185 493.5292824465531 491.26025255122835L565.2888745315245 449.8299006389441Z " stroke-width="12.454545454545455" stroke="#6a7ae5" fill="none" opacity="0.4763636363636363" transform="matrix(0.65783948205451,0.8311468443520091,-0.7591872329264749,0.5567863474069829,419.19866335498523,-154.6694955362209)"></path><path d="M535.81623310553 413.7684528945026C540.3740537172322 411.1374678872304 545.9895715491032 411.1374678872304 550.5473921608054 413.76918945245535L631.4980574013546 460.5060012291748C636.0558780130568 463.13698623644694 638.8636369289923 468.0004783985461 638.8636369289923 473.2631849710433V566.7368085244821C638.8636369289923 571.9995150969792 636.0558780130568 576.8630072590784 631.4980574013546 579.4947288243034L550.5473921608054 626.2315406010227C545.9895715491032 628.862525608295 540.3740537172322 628.862525608295 535.81623310553 626.2308040430701L454.86556786498073 579.4939922663506C450.30774725327854 576.8630072590784 447.49998833734304 571.9995150969792 447.49998833734304 566.7368085244821V473.2631849710433C447.49998833734304 468.0004783985461 450.30774725327854 463.13698623644694 454.86556786498073 460.505264671222L535.81623310553 413.7684528945026Z " stroke-width="13.045454545454547" stroke="#6b7fea" fill="none" opacity="0.5636363636363636" transform="matrix(0.7581340758813725,0.7293923876161411,-0.6569269162801857,0.6845096027142311,344.7124988027516,-165.9158427281276)"></path><path d="M506.3435916795352 377.7070051500611C511.41890356258983 374.7773002298492 517.6720027539939 374.7773002298492 522.7473146370485 377.707825336209L612.8890530331755 429.7510969773635C617.9643649162301 432.68080189757535 621.0909145119322 438.0964910319984 621.0909145119322 443.95672105857005V548.0432643408791C621.0909145119322 553.9034943674508 617.9643649162301 559.3191835018738 612.8890530331755 562.2497086082335L522.7473146370485 614.292980249388C517.6720027539939 617.2226851695999 511.41890356258983 617.2226851695999 506.3435916795352 614.2921600632402L416.2018532834082 562.2488884220857C411.1265414003536 559.3191835018738 407.99999180465153 553.9034943674508 407.99999180465153 548.0432643408791V443.95672105857005C407.99999180465153 438.0964910319984 411.1265414003536 432.68080189757535 416.2018532834082 429.75027679121564L506.3435916795352 377.7070051500611Z " stroke-width="13.636363636363637" stroke="#6b84ee" fill="none" opacity="0.6509090909090909" transform="matrix(0.8429506652385467,0.60824209192896,-0.541731498226899,0.7939799526072502,270.28327734212,-161.56140779811597)"></path><path d="M476.87095025354057 341.6455650350141C482.4637534079476 338.4171402018626 489.3544339588848 338.4171402018626 494.94723711329175 341.6464688493571L594.2800486649967 398.9962003549468C599.8728518194036 402.22462518809834 603.3181920948722 408.1925112948452 603.3181920948722 414.65026477549134V529.3497277866707C603.3181920948722 535.8074812673168 599.8728518194036 541.7753673740636 594.2800486649967 545.0046960215582L494.94723711329175 602.3544275271479C489.3544339588848 605.5828523602994 482.4637534079476 605.5828523602994 476.87095025354057 602.3535237128049L377.5381387018357 545.0037922072153C371.94533554742867 541.7753673740636 368.49999527196013 535.8074812673168 368.49999527196013 529.3497277866707V414.65026477549134C368.49999527196013 408.1925112948452 371.94533554742867 402.22462518809834 377.5381387018357 398.9952965406038L476.87095025354057 341.6455650350141Z " stroke-width="14.227272727272727" stroke="#6b89f2" fill="none" opacity="0.7381818181818182" transform="matrix(0.9106634681823947,0.4709199250673825,-0.4158860708586807,0.8822915444146499,197.16530335457296,-141.903905393777)"></path><path d="M447.3982935687568 305.5841020317836C453.50858799451623 302.0569572856923 461.0368499049865 302.0569572856923 467.14714433074596 305.58508947432165L575.6710290380286 368.2412808443464C581.781323463788 371.7684255904377 585.5454544190231 378.2885086695084 585.5454544190231 385.3437856042291V510.6561683442786C585.5454544190231 517.7114452789992 581.781323463788 524.23152835807 575.6710290380286 527.7596605466994L467.14714433074596 590.415851916724C461.0368499049865 593.9429966628154 453.50858799451623 593.9429966628154 447.3982935687568 590.4148644741861L338.8744088614742 527.7586731041613C332.76411443571476 524.23152835807 328.9999834804796 517.7114452789992 328.9999834804796 510.6561683442786V385.3437856042291C328.9999834804796 378.2885086695084 332.76411443571476 371.7684255904377 338.8744088614742 368.2402934018084L447.3982935687568 305.5841020317836Z " stroke-width="14.818181818181818" stroke="#6b8ef7" fill="none" opacity="0.8254545454545454" transform="matrix(0.959976280985121,0.3210783748379292,-0.281874468689677,0.947100476540748,126.74434946140332,-107.64697756158864)"></path><path d="M417.9256368839731 269.52266954613117C424.55342258108493 265.6968048871002 432.71926585108827 265.6968048871002 439.34705154820017 269.5237406168644L557.0620094110606 337.48639185132424C563.6897951081725 341.3122565103552 567.7727167431741 348.38453656174977 567.7727167431741 356.03733695054495V491.9626394194647C567.7727167431741 499.6154398082599 563.6897951081725 506.6877198596544 557.0620094110606 510.51465558941857L439.34705154820017 578.4773068238785C432.71926585108827 582.3031714829094 424.55342258108493 582.3031714829094 417.9256368839731 578.4762357531454L300.21067902111264 510.51358451868543C293.58289332400085 506.6877198596544 289.49997168899915 499.6154398082599 289.49997168899915 491.9626394194647V356.03733695054495C289.49997168899915 348.38453656174977 293.58289332400085 341.3122565103552 300.21067902111264 337.4853207805911L417.9256368839731 269.52266954613117Z " stroke-width="15.40909090909091" stroke="#6b93fb" fill="none" opacity="0.9127272727272727" transform="matrix(0.98994604869282,0.16270162959090023,-0.1423327540281182,0.9866867981100917,60.5068390866723,-59.871918393449846)"></path><path d="M388.4530107167675 233.46125231926777C395.59828768523175 229.33666774729716 404.40171231476825 229.33666774729716 411.5469892832325 233.46240701819613L538.4530203016707 306.7315181170911C545.5982972701349 310.8561026890618 550.0000095849032 318.48057971278024 550.0000095849032 326.7309035556499V473.2691257534399C550.0000095849032 481.5194495963096 545.5982972701349 489.14392662002797 538.4530203016707 493.26966589092694L411.5469892832325 566.538776989822C404.40171231476825 570.6633615617925 395.59828768523175 570.6633615617925 388.4530107167675 566.5376222908938L261.54697969832927 493.26851119199864C254.401702729865 489.14392662002797 249.99999041509682 481.5194495963096 249.99999041509682 473.2691257534399V326.7309035556499C249.99999041509682 318.48057971278024 254.401702729865 310.8561026890618 261.54697969832927 306.7303634181629L388.4530107167675 233.46125231926777Z " stroke-width="16" stroke="#6b97ff" fill="none" opacity="1" transform="matrix(1,-2.4802620430283604e-16,2.4802620430283604e-16,1,-1.1368683772161603e-13,1.1368683772161603e-13)"></path></g></svg>